<svg width="711" height="222" viewBox="0 0 711 222" fill="none" xmlns="http://www.w3.org/2000/svg">
<rect x="0.581152" y="0.581152" width="709.005" height="220.838" stroke="black" stroke-width="1.1623"/>
<path d="M105.091 80.3259C109.813 72.4077 121.619 72.4077 126.341 80.3259L155.382 129.023C160.105 136.941 154.202 146.839 144.758 146.839H86.6746C77.2302 146.839 71.3275 136.941 76.0497 129.023L105.091 80.3259Z" fill="black"/>
<path d="M256.03 135.24V109.529C256.03 106.887 256.28 102.795 256.78 97.2534L256.979 94.8853L255.931 94.7886C255.165 97.5917 254.433 100.105 253.734 102.328C253.036 104.551 252.403 106.484 251.837 108.127L238.259 146.839H224.68L210.353 108.127C209.721 106.645 209.105 104.986 208.506 103.149C207.94 101.281 207.391 99.251 206.859 97.06L206.26 94.7886L205.211 94.8853C205.544 97.8172 205.777 100.508 205.91 102.956C206.076 105.372 206.159 107.564 206.159 109.529V135.578C208.689 136.48 210.552 137.689 211.751 139.203L210.752 146.839H190.734L189.686 139.203C190.95 137.689 192.831 136.48 195.327 135.578V89.8107C192.531 88.8441 190.584 87.6359 189.486 86.186L190.484 78.55H213.797L228.724 118.422C229.689 120.58 230.471 122.674 231.07 124.704C231.703 126.702 232.152 128.603 232.418 130.407L232.718 132.099H234.165C234.398 128.104 235.629 123.544 237.859 118.422L252.037 78.55H274.951L275.999 86.186C274.901 87.6359 272.954 88.8441 270.158 89.8107V135.143C272.821 136.174 274.701 137.334 275.799 138.623L274.751 146.839H251.438L250.439 138.719C251.471 137.431 253.335 136.271 256.03 135.24Z" fill="black"/>
<path d="M307.399 123.061H302.806V134.756C307.732 135.82 310.827 137.109 312.092 138.623L311.044 146.839H283.437L282.438 138.623C283.337 137.496 285.217 136.4 288.08 135.337V90.1007C285.251 89.1341 283.37 88.0225 282.438 86.766L283.437 78.55H310.544C316.868 78.6145 322.109 79.3556 326.269 80.7732C330.463 82.1586 333.591 84.4462 335.654 87.6359C337.718 90.8256 338.749 95.1591 338.749 100.636C338.749 115.586 328.299 123.061 307.399 123.061ZM308.897 89.3274H302.806V112.284H309.645C314.271 112.284 317.716 111.397 319.979 109.625C322.276 107.821 323.424 104.728 323.424 100.346C323.424 95.9324 322.175 93.0004 319.68 91.5506C317.217 90.0684 313.622 89.3274 308.897 89.3274Z" fill="black"/>
<path d="M382.48 90.2457C380.45 89.3758 377.389 88.9408 373.295 88.9408C369.202 88.9408 365.89 90.6484 363.361 94.0637C360.831 97.479 359.567 103.488 359.567 112.09C359.567 120.661 360.781 126.75 363.211 130.359C365.64 133.967 369.235 135.772 373.994 135.772C381.283 135.772 387.822 134.708 393.613 132.582L397.307 141.378C390.085 145.534 381.599 147.612 371.848 147.612C362.096 147.612 355.057 144.938 350.731 139.59C346.404 134.306 344.241 125.574 344.241 113.395C344.241 101.249 346.92 92.2755 352.278 86.4761C357.637 80.6443 365.141 77.7285 374.792 77.7285C382.58 77.7285 389.985 79.8227 397.008 84.0112V86.2344C397.008 86.9755 396.891 88.1192 396.658 89.6658C396.458 91.1801 396.142 92.7749 395.71 94.4503C395.31 96.0935 394.811 97.4951 394.212 98.6549H384.527C383.562 96.8184 382.88 94.0154 382.48 90.2457Z" fill="black"/>
<path d="M457.861 90.5356L438.642 147.322H424.663L405.244 90.1007C402.316 89.1019 400.402 87.9903 399.503 86.766L400.502 78.55H424.464L425.462 86.766C424.497 88.0547 422.767 89.1019 420.271 89.9074L428.957 119.243C429.689 121.498 430.271 123.689 430.704 125.816C431.137 127.91 431.436 129.908 431.603 131.809L431.702 133.5H433.15C433.217 129.473 434.065 124.785 435.696 119.436L444.782 90.004C442.219 89.1985 440.422 88.1192 439.39 86.766L440.389 78.55H463.702L464.75 86.766C463.519 88.2159 461.222 89.4724 457.861 90.5356Z" fill="black"/>
<path d="M462.404 104.696C462.404 104.181 462.404 103.665 462.404 103.149C462.437 102.602 462.471 102.054 462.504 101.506C468.861 98.22 475.683 96.5768 482.971 96.5768C490.26 96.5768 495.485 97.9139 498.647 100.588C501.808 103.262 503.389 107.693 503.389 113.879V134.95C505.752 135.433 507.632 135.997 509.03 136.641V145.244C505.635 146.823 500.66 147.612 494.104 147.612C493.405 145.84 492.822 143.762 492.357 141.378C489.428 145.534 484.12 147.612 476.432 147.612C473.403 147.612 470.624 147.032 468.095 145.872C465.599 144.713 463.602 143.069 462.105 140.943C460.607 138.784 459.858 136.222 459.858 133.259C459.858 128.845 461.372 125.381 464.401 122.868C467.429 120.323 471.939 119.05 477.93 119.05H489.111V114.265C489.111 109.11 486.283 106.533 480.625 106.533C478.429 106.533 476.681 106.742 475.383 107.161C475.217 109.964 474.817 112.106 474.185 113.588H464.151C462.986 111.237 462.404 108.272 462.404 104.696ZM480.825 137.512C484.319 137.512 487.081 136.529 489.111 134.564V126.444H481.923C477.031 126.444 474.585 128.264 474.585 131.905C474.585 133.549 475.1 134.902 476.132 135.965C477.197 136.996 478.761 137.512 480.825 137.512Z" fill="black"/>
<path d="M550.365 142.682C545.672 145.969 540.148 147.612 533.791 147.612C527.401 147.612 522.941 146.34 520.412 143.794C517.916 141.216 516.668 137.012 516.668 131.18V108.321C514.238 107.547 512.358 106.436 511.027 104.986L512.025 97.35C515.886 96.4801 519.447 96.0451 522.708 96.0451C524.339 96.0451 525.837 96.0773 527.201 96.1417C528.566 96.174 529.814 96.2545 530.945 96.3834V127.942C530.945 131.518 531.511 133.871 532.643 134.998C533.541 135.9 534.939 136.464 536.836 136.69C538.733 136.883 540.747 136.722 542.877 136.206C545.04 135.691 546.97 134.821 548.667 133.597V108.321C546.238 107.547 544.357 106.436 543.026 104.986L544.074 97.35C547.869 96.4801 551.413 96.0451 554.708 96.0451C556.339 96.0451 557.836 96.0773 559.201 96.1417C560.565 96.174 561.813 96.2545 562.945 96.3834V134.95C565.308 135.433 567.188 135.997 568.586 136.641V144.471C564.459 146.565 559.317 147.612 553.16 147.612C551.43 146.452 550.497 144.809 550.365 142.682Z" fill="black"/>
<path d="M571.531 84.2046L572.529 76.5686C576.39 75.6987 579.951 75.2637 583.213 75.2637C586.474 75.2637 589.219 75.3604 591.449 75.5537V135.868C594.112 136.835 595.992 137.946 597.091 139.203L596.092 146.839H572.529L571.531 139.203C572.463 137.946 574.343 136.835 577.172 135.868V87.5393C574.743 86.766 572.862 85.6545 571.531 84.2046Z" fill="black"/>
<path d="M612.467 84.8813H619.905V97.3501H634.532V105.663H619.905V130.697C619.905 132.856 620.221 134.386 620.854 135.289C621.319 135.997 622.185 136.449 623.449 136.641C624.747 136.803 626.229 136.755 627.892 136.497C629.556 136.239 631.154 135.82 632.685 135.24L635.78 142.973C630.521 145.55 625.146 146.839 619.655 146.839C614.164 146.839 610.453 145.712 608.523 143.456C606.593 141.168 605.628 137.85 605.628 133.5V105.663H601.035L599.887 99.6216C600.985 98.3651 603.232 97.1085 606.626 95.8519C607.491 90.4069 609.438 86.75 612.467 84.8813Z" fill="black"/>
</svg>
