<svg width="711" height="222" viewBox="0 0 711 222" fill="none" xmlns="http://www.w3.org/2000/svg">
<rect x="0.581152" y="0.581152" width="709.005" height="220.838" fill="black"/>
<rect x="0.581152" y="0.581152" width="709.005" height="220.838" stroke="black" stroke-width="1.1623"/>
<path d="M105.091 80.3259C109.813 72.4077 121.618 72.4077 126.341 80.3259L155.382 129.023C160.104 136.941 154.201 146.839 144.757 146.839H86.6741C77.2298 146.839 71.327 136.941 76.0492 129.023L105.091 80.3259Z" fill="white"/>
<path d="M256.03 135.24V109.529C256.03 106.887 256.28 102.795 256.779 97.2534L256.978 94.8853L255.93 94.7886C255.165 97.5917 254.433 100.105 253.734 102.328C253.035 104.551 252.403 106.484 251.837 108.127L238.258 146.839H224.68L210.352 108.127C209.72 106.645 209.104 104.986 208.505 103.149C207.94 101.281 207.39 99.251 206.858 97.06L206.259 94.7886L205.211 94.8853C205.544 97.8172 205.776 100.508 205.91 102.956C206.076 105.372 206.159 107.564 206.159 109.529V135.578C208.688 136.48 210.552 137.689 211.75 139.203L210.752 146.839H190.733L189.685 139.203C190.95 137.689 192.83 136.48 195.326 135.578V89.8107C192.53 88.8441 190.584 87.6359 189.485 86.186L190.484 78.55H213.797L228.723 118.422C229.689 120.58 230.47 122.674 231.07 124.704C231.702 126.702 232.151 128.603 232.418 130.407L232.717 132.099H234.165C234.398 128.104 235.629 123.544 237.859 118.422L252.037 78.55H274.95L275.998 86.186C274.9 87.6359 272.953 88.8441 270.158 89.8107V135.143C272.82 136.174 274.7 137.334 275.799 138.623L274.751 146.839H251.437L250.439 138.719C251.471 137.431 253.334 136.271 256.03 135.24Z" fill="white"/>
<path d="M307.399 123.061H302.806V134.756C307.731 135.82 310.827 137.109 312.091 138.623L311.043 146.839H283.436L282.438 138.623C283.337 137.496 285.217 136.4 288.079 135.337V90.1007C285.251 89.1341 283.37 88.0225 282.438 86.766L283.436 78.55H310.544C316.867 78.6145 322.109 79.3556 326.268 80.7732C330.462 82.1586 333.59 84.4462 335.654 87.6359C337.717 90.8256 338.749 95.1591 338.749 100.636C338.749 115.586 328.299 123.061 307.399 123.061ZM308.896 89.3274H302.806V112.284H309.645C314.271 112.284 317.715 111.397 319.979 109.625C322.275 107.821 323.423 104.728 323.423 100.346C323.423 95.9324 322.175 93.0004 319.679 91.5506C317.217 90.0684 313.622 89.3274 308.896 89.3274Z" fill="white"/>
<path d="M382.48 90.2457C380.45 89.3758 377.388 88.9408 373.295 88.9408C369.201 88.9408 365.89 90.6484 363.36 94.0637C360.831 97.479 359.567 103.488 359.567 112.09C359.567 120.661 360.781 126.75 363.21 130.359C365.64 133.967 369.234 135.772 373.993 135.772C381.282 135.772 387.822 134.708 393.613 132.582L397.307 141.378C390.085 145.534 381.598 147.612 371.847 147.612C362.096 147.612 355.057 144.938 350.731 139.59C346.404 134.306 344.24 125.574 344.24 113.395C344.24 101.249 346.92 92.2755 352.278 86.4761C357.636 80.6443 365.141 77.7285 374.792 77.7285C382.58 77.7285 389.985 79.8227 397.007 84.0112V86.2344C397.007 86.9755 396.891 88.1192 396.658 89.6658C396.458 91.1801 396.142 92.7749 395.709 94.4503C395.31 96.0935 394.81 97.4951 394.212 98.6549H384.527C383.562 96.8184 382.879 94.0154 382.48 90.2457Z" fill="white"/>
<path d="M457.86 90.5356L438.641 147.322H424.663L405.244 90.1007C402.315 89.1019 400.402 87.9903 399.503 86.766L400.501 78.55H424.464L425.462 86.766C424.497 88.0547 422.766 89.1019 420.27 89.9074L428.956 119.243C429.688 121.498 430.271 123.689 430.703 125.816C431.137 127.91 431.435 129.908 431.602 131.809L431.702 133.5H433.149C433.216 129.473 434.065 124.785 435.696 119.436L444.781 90.004C442.219 89.1985 440.422 88.1192 439.39 86.766L440.388 78.55H463.702L464.75 86.766C463.518 88.2159 461.222 89.4724 457.86 90.5356Z" fill="white"/>
<path d="M462.404 104.696C462.404 104.181 462.404 103.665 462.404 103.149C462.437 102.602 462.47 102.054 462.503 101.506C468.86 98.22 475.682 96.5768 482.971 96.5768C490.259 96.5768 495.484 97.9139 498.646 100.588C501.808 103.262 503.388 107.693 503.388 113.879V134.95C505.751 135.433 507.632 135.997 509.03 136.641V145.244C505.635 146.823 500.659 147.612 494.103 147.612C493.404 145.84 492.822 143.762 492.356 141.378C489.427 145.534 484.119 147.612 476.431 147.612C473.403 147.612 470.624 147.032 468.094 145.872C465.598 144.713 463.601 143.069 462.104 140.943C460.606 138.784 459.857 136.222 459.857 133.259C459.857 128.845 461.372 125.381 464.401 122.868C467.428 120.323 471.938 119.05 477.929 119.05H489.111V114.265C489.111 109.11 486.282 106.533 480.624 106.533C478.428 106.533 476.681 106.742 475.383 107.161C475.216 109.964 474.817 112.106 474.185 113.588H464.151C462.986 111.237 462.404 108.272 462.404 104.696ZM480.824 137.512C484.319 137.512 487.081 136.529 489.111 134.564V126.444H481.922C477.03 126.444 474.584 128.264 474.584 131.905C474.584 133.549 475.1 134.902 476.132 135.965C477.197 136.996 478.761 137.512 480.824 137.512Z" fill="white"/>
<path d="M550.364 142.682C545.671 145.969 540.147 147.612 533.79 147.612C527.4 147.612 522.941 146.34 520.412 143.794C517.915 141.216 516.668 137.012 516.668 131.18V108.321C514.238 107.547 512.358 106.436 511.026 104.986L512.025 97.35C515.885 96.4801 519.446 96.0451 522.708 96.0451C524.338 96.0451 525.836 96.0773 527.201 96.1417C528.565 96.174 529.813 96.2545 530.945 96.3834V127.942C530.945 131.518 531.51 133.871 532.642 134.998C533.54 135.9 534.938 136.464 536.835 136.69C538.733 136.883 540.746 136.722 542.876 136.206C545.039 135.691 546.969 134.821 548.667 133.597V108.321C546.237 107.547 544.357 106.436 543.026 104.986L544.074 97.35C547.868 96.4801 551.412 96.0451 554.707 96.0451C556.338 96.0451 557.836 96.0773 559.2 96.1417C560.565 96.174 561.813 96.2545 562.944 96.3834V134.95C565.307 135.433 567.187 135.997 568.585 136.641V144.471C564.458 146.565 559.316 147.612 553.16 147.612C551.429 146.452 550.497 144.809 550.364 142.682Z" fill="white"/>
<path d="M571.53 84.2046L572.529 76.5686C576.39 75.6987 579.95 75.2637 583.212 75.2637C586.473 75.2637 589.219 75.3604 591.449 75.5537V135.868C594.111 136.835 595.992 137.946 597.09 139.203L596.092 146.839H572.529L571.53 139.203C572.462 137.946 574.343 136.835 577.172 135.868V87.5393C574.742 86.766 572.862 85.6545 571.53 84.2046Z" fill="white"/>
<path d="M612.466 84.8813H619.904V97.3501H634.531V105.663H619.904V130.697C619.904 132.856 620.221 134.386 620.853 135.289C621.319 135.997 622.184 136.449 623.449 136.641C624.747 136.803 626.228 136.755 627.892 136.497C629.556 136.239 631.153 135.82 632.684 135.24L635.78 142.973C630.521 145.55 625.146 146.839 619.655 146.839C614.164 146.839 610.453 145.712 608.522 143.456C606.592 141.168 605.627 137.85 605.627 133.5V105.663H601.034L599.886 99.6216C600.984 98.3651 603.231 97.1085 606.626 95.8519C607.491 90.4069 609.438 86.75 612.466 84.8813Z" fill="white"/>
</svg>
