<svg width="154" height="21" viewBox="0 0 154 21" fill="none" xmlns="http://www.w3.org/2000/svg">
<path d="M8.39905 1.62455C9.69083 -0.541516 12.9203 -0.541516 14.2121 1.62455L22.1564 14.9459C23.4482 17.112 21.8335 19.8195 19.25 19.8195H3.36114C0.777593 19.8195 -0.837129 17.112 0.454639 14.9459L8.39905 1.62455Z" fill="#080807"/>
<path d="M49.6892 16.6465V9.61312C49.6892 8.89045 49.7575 7.77115 49.8941 6.25515L49.9487 5.60734L49.6619 5.58089C49.4525 6.34768 49.2523 7.03515 49.0611 7.64327C48.8699 8.25152 48.6969 8.78026 48.5421 9.2298L44.8276 19.8194H41.1132L37.1939 9.2298C37.0209 8.8244 36.8525 8.37048 36.6886 7.86803C36.5339 7.35683 36.3836 6.8016 36.238 6.20226L36.0741 5.58089L35.7874 5.60734C35.8784 6.40939 35.942 7.14533 35.9785 7.81513C36.024 8.47613 36.0467 9.07562 36.0467 9.61312V16.739C36.7387 16.9859 37.2485 17.3165 37.5763 17.7306L37.3031 19.8194H31.827L31.5403 17.7306C31.8863 17.3165 32.4006 16.9859 33.0835 16.739V4.21917C32.3186 3.95476 31.7861 3.62424 31.4856 3.22762L31.7587 1.13876H38.1362L42.2193 12.0458C42.4834 12.6362 42.6973 13.2091 42.8612 13.7645C43.0342 14.3109 43.1571 14.8309 43.2299 15.3245L43.3119 15.7872H43.7079C43.7716 14.6944 44.1084 13.4472 44.7184 12.0458L48.5968 1.13876H54.8649L55.1516 3.22762C54.8512 3.62424 54.3186 3.95476 53.5539 4.21917V16.6201C54.2822 16.9021 54.7965 17.2194 55.0971 17.5721L54.8103 19.8194H48.4329L48.1598 17.5984C48.442 17.2459 48.9517 16.9286 49.6892 16.6465Z" fill="#080807"/>
<path d="M63.7414 13.3149H62.4849V16.5143C63.8324 16.8053 64.6791 17.1577 65.0251 17.5721L64.7383 19.8194H57.1864L56.9132 17.5721C57.1591 17.2636 57.6734 16.9638 58.4564 16.673V4.2985C57.6826 4.03408 57.1682 3.73 56.9132 3.38628L57.1864 1.13876H64.6016C66.3315 1.1564 67.7653 1.35912 68.9033 1.74692C70.0505 2.12591 70.9062 2.75168 71.4707 3.62424C72.0351 4.4968 72.3173 5.68225 72.3173 7.18058C72.3173 11.2701 69.4586 13.3149 63.7414 13.3149ZM64.151 4.08696H62.4849V10.3668H64.3558C65.6213 10.3668 66.5635 10.1243 67.1827 9.63957C67.8109 9.14606 68.1249 8.29988 68.1249 7.10127C68.1249 5.89378 67.7835 5.09173 67.1007 4.69512C66.4271 4.28967 65.4438 4.08696 64.151 4.08696Z" fill="#080807"/>
<path d="M84.2802 4.33817C83.7248 4.10019 82.8873 3.9812 81.7675 3.9812C80.6477 3.9812 79.7418 4.44833 79.05 5.3826C78.358 6.31686 78.0121 7.96055 78.0121 10.3139C78.0121 12.6583 78.3443 14.3242 79.0089 15.3112C79.6735 16.2984 80.6568 16.792 81.9587 16.792C83.9525 16.792 85.7414 16.5011 87.3255 15.9195L88.3361 18.3256C86.3606 19.4626 84.039 20.0311 81.3715 20.0311C78.704 20.0311 76.7784 19.2995 75.595 17.8364C74.4114 16.3909 73.8196 14.0024 73.8196 10.6708C73.8196 7.34807 74.5525 4.89343 76.0182 3.30696C77.484 1.71166 79.537 0.914032 82.1771 0.914032C84.3075 0.914032 86.3331 1.48691 88.2542 2.6327V3.24086C88.2542 3.44357 88.2223 3.75645 88.1586 4.17952C88.1039 4.59376 88.0174 5.03004 87.8991 5.48836C87.7898 5.93786 87.6532 6.32126 87.4894 6.63855H84.8401C84.576 6.13617 84.3894 5.36937 84.2802 4.33817Z" fill="#080807"/>
<path d="M104.901 4.41747L99.6433 19.9517H95.8195L90.5073 4.2985C89.7063 4.02527 89.1827 3.72119 88.9369 3.38628L89.21 1.13876H95.765L96.0381 3.38628C95.7741 3.73882 95.3007 4.02527 94.6179 4.24561L96.994 12.2706C97.1943 12.8875 97.3536 13.4868 97.4719 14.0686C97.5904 14.6415 97.6722 15.1879 97.7178 15.7079L97.745 16.1706H98.141C98.1594 15.0689 98.3914 13.7865 98.8376 12.3233L101.323 4.27205C100.622 4.05171 100.13 3.75644 99.8481 3.38628L100.121 1.13876H106.499L106.785 3.38628C106.449 3.78289 105.82 4.12662 104.901 4.41747Z" fill="#080807"/>
<path d="M106.144 8.29113C106.144 8.1501 106.144 8.00908 106.144 7.86805C106.153 7.71825 106.162 7.56846 106.171 7.41851C107.91 6.51958 109.776 6.07007 111.77 6.07007C113.764 6.07007 115.193 6.43584 116.058 7.16738C116.923 7.89888 117.355 9.11085 117.355 10.803V16.5672C118.002 16.6995 118.516 16.8536 118.898 17.0299V19.3832C117.97 19.8151 116.609 20.0311 114.815 20.0311C114.624 19.5463 114.465 18.9778 114.337 18.3256C113.536 19.4626 112.084 20.0311 109.981 20.0311C109.152 20.0311 108.392 19.8724 107.7 19.5551C107.018 19.2378 106.471 18.7883 106.062 18.2066C105.652 17.6161 105.447 16.9153 105.447 16.1045C105.447 14.8971 105.861 13.9495 106.69 13.262C107.518 12.5658 108.752 12.2177 110.391 12.2177H113.45V10.9088C113.45 9.49856 112.676 8.79358 111.128 8.79358C110.527 8.79358 110.049 8.85087 109.694 8.96544C109.649 9.73225 109.539 10.3183 109.366 10.7237H106.622C106.303 10.0804 106.144 9.26941 106.144 8.29113ZM111.183 17.268C112.139 17.268 112.894 16.999 113.45 16.4615V14.2405H111.483C110.145 14.2405 109.476 14.7384 109.476 15.7343C109.476 16.1839 109.617 16.554 109.899 16.8449C110.19 17.1269 110.618 17.268 111.183 17.268Z" fill="#080807"/>
<path d="M130.206 18.6824C128.922 19.5815 127.411 20.031 125.672 20.031C123.924 20.031 122.704 19.6829 122.012 18.9866C121.329 18.2814 120.988 17.1313 120.988 15.536V9.28269C120.323 9.07106 119.809 8.7671 119.445 8.37046L119.718 6.28157C120.774 6.04361 121.748 5.92462 122.64 5.92462C123.086 5.92462 123.496 5.93343 123.869 5.95105C124.243 5.95986 124.584 5.9819 124.893 6.01715V14.6502C124.893 15.6285 125.048 16.272 125.358 16.5805C125.603 16.8272 125.986 16.9815 126.505 17.0432C127.024 17.0961 127.575 17.0519 128.157 16.9109C128.749 16.7699 129.277 16.5319 129.741 16.197V9.28269C129.077 9.07106 128.562 8.7671 128.198 8.37046L128.485 6.28157C129.523 6.04361 130.492 5.92462 131.394 5.92462C131.84 5.92462 132.25 5.93343 132.623 5.95105C132.996 5.95986 133.338 5.9819 133.647 6.01715V16.5672C134.293 16.6994 134.808 16.8536 135.19 17.0299V19.1717C134.061 19.7446 132.655 20.031 130.97 20.031C130.497 19.7138 130.242 19.2642 130.206 18.6824Z" fill="#080807"/>
<path d="M135.996 2.68559L136.269 0.596726C137.325 0.358763 138.299 0.239772 139.191 0.239772C140.083 0.239772 140.835 0.266209 141.445 0.319099V16.8184C142.173 17.0828 142.687 17.3869 142.988 17.7306L142.715 19.8195H136.269L135.996 17.7306C136.251 17.3869 136.765 17.0828 137.539 16.8184V3.59781C136.874 3.38629 136.36 3.08221 135.996 2.68559Z" fill="#080807"/>
<path d="M147.194 2.8707H149.229V6.28161H153.23V8.55552H149.229V15.4038C149.229 15.9943 149.315 16.413 149.488 16.6599C149.616 16.8537 149.852 16.9772 150.198 17.0299C150.553 17.074 150.959 17.0609 151.414 16.9903C151.869 16.9199 152.306 16.8053 152.725 16.6466L153.571 18.7618C152.133 19.467 150.663 19.8195 149.16 19.8195C147.658 19.8195 146.643 19.5111 146.115 18.8941C145.587 18.2683 145.323 17.3605 145.323 16.1706V8.55552H144.067L143.753 6.90298C144.053 6.55926 144.668 6.21551 145.596 5.87177C145.833 4.38226 146.365 3.38189 147.194 2.8707Z" fill="#080807"/>
</svg>
